<svg width="64" height="64" viewBox="0 0 64 64" fill="none" xmlns="http://www.w3.org/2000/svg">
  <rect width="64" height="64" rx="10" fill="#233263"/>
  <g transform="translate(12 15)">
    <path d="M1 9.5C1 4.2 5.4 0 10.8 0c4.4 0 8.2 3 9.3 7.2l3.4 13.1H4L1 9.5Z" fill="#FFC04D"/>
    <path d="M24.6 6.7C25.6 2.8 29.1 0 33.2 0c4.9 0 8.8 3.9 8.8 8.7v11.6H21.1l3.5-13.6Z" fill="#FFC04D"/>
    <path d="M5.1 22.5h19.8l-5.1 14.7H8.9L5.1 22.5Z" fill="#EC6465"/>
    <path d="M26.6 22.5H42l-3.8 14.7H25.6l-3.1-9.4 4.1-5.3Z" fill="#EC6465"/>
    <path d="M9.9 39.4h10.7l-2.6 7.7A8.9 8.9 0 0 1 9.6 53c-4.4 0-8.2-3.1-9-7.4L0 39.4h9.9Z" fill="#72C7D4"/>
    <path d="M24.7 39.4h13l-1.7 6.2A9.8 9.8 0 0 1 26.6 53c-4.1 0-7.7-2.6-9-6.5l-2.3-7.1h9.4Z" fill="#72C7D4"/>
  </g>
</svg>
