<svg width="420" height="160" viewBox="0 0 420 160" fill="none" xmlns="http://www.w3.org/2000/svg" role="img" aria-labelledby="title desc">
  <title id="title">Snow Cone Negocios Digitales</title>
  <desc id="desc">Snow Cone wordmark with colorful monogram.</desc>
  <rect width="420" height="160" fill="#FFFFFF"/>
  <text x="20" y="58" fill="#233263" font-family="Inter, Arial Black, Arial, sans-serif" font-size="54" font-weight="900" letter-spacing="0">SNO</text>
  <g transform="translate(196 20) scale(0.72)">
    <path d="M1.4 14C1.4 6.3 7.8 0 15.6 0c6.4 0 11.9 4.3 13.5 10.4L34 29.3H5.7L1.4 14Z" fill="#FFC04D"/>
    <path d="M35.6 9.6C37.1 4 42.1 0 48.1 0 55.2 0 61 5.7 61 12.7v16.6H30.5l5.1-19.7Z" fill="#FFC04D"/>
    <path d="M7.4 32.5h28.7l-7.4 21.3H12.9L7.4 32.5Z" fill="#EC6465"/>
    <path d="M38.6 32.5H61l-5.5 21.3H37.2l-4.5-13.6 5.9-7.7Z" fill="#EC6465"/>
    <path d="M14.3 57h15.5L26 68.1A12.9 12.9 0 0 1 13.9 76.6C7.5 76.6 2 72.1.8 65.9L0 57h14.3Z" fill="#72C7D4"/>
    <path d="M35.8 57h18.8l-2.4 9A14.2 14.2 0 0 1 38.6 76.6c-6 0-11.2-3.8-13-9.4L22.2 57h13.6Z" fill="#72C7D4"/>
  </g>
  <text x="20" y="118" fill="#233263" font-family="Inter, Arial Black, Arial, sans-serif" font-size="54" font-weight="900" letter-spacing="0">CONE</text>
  <text x="20" y="148" fill="#233263" font-family="Inter, Arial, sans-serif" font-size="20" font-weight="400" letter-spacing="7">NEGOCIOS DIGITALES</text>
</svg>
